<?xml version="1.0" encoding="UTF-8"?>
<!-- Generator: Adobe Illustrator 16.0.0, SVG Export Plug-In . SVG Version: 6.00 Build 0)  -->
<!DOCTYPE svg PUBLIC "-//W3C//DTD SVG 1.1//EN" "http://www.w3.org/Graphics/SVG/1.1/DTD/svg11.dtd">
<svg version="1.1" id="Layer_1" xmlns="http://www.w3.org/2000/svg" xmlns:xlink="http://www.w3.org/1999/xlink" x="0px" y="0px" width="120px" height="50px" viewBox="0 0 120 50" enable-background="new 0 0 120 50" xml:space="preserve">
<g>
	<g>
		<path fill="#00A651" d="M86.422,32.484l8.865-19.189h9.588c1.586,0,2.715-0.196,3.457-0.6c0.914-0.519,1.588-1.244,2.01-2.159    c0.629-1.36,0.254-2.098-0.17-2.477c-0.541-0.474-1.5-0.693-3.021-0.693h-9.123l3.137-6.787h10.529    c2.035,0,3.609,0.182,4.68,0.541c1.025,0.341,1.77,0.893,2.277,1.688c0.557,0.85,0.813,1.929,0.764,3.214    c-0.049,1.336-0.402,2.725-1.051,4.127c-0.893,1.93-2.242,3.744-4.012,5.392c-1.723,1.614-3.5,2.788-5.283,3.49    c-1.777,0.697-3.871,1.051-6.217,1.051h-3.186l-5.732,12.402H86.422z M73.568,32.484c-3.172,0-5.102-0.814-5.732-2.42    c-0.66-1.697-0.086-4.527,1.707-8.408l3.863-8.362h7.418l-3.426,7.413c-0.9,1.949-1.156,3.137-0.828,3.851    c0.439,1.018,2.025,1.139,3.18,1.139h4.74l-3.137,6.787H73.568z M55.461,32.484c-3.709,0-6.436-0.727-8.102-2.16    c-2.084-1.844-2.908-4.439-2.512-7.927c0.193-1.785,0.729-3.638,1.596-5.511c1.145-2.478,2.811-4.915,4.955-7.242    c1.645-1.792,3.459-3.377,5.396-4.711c2.816-1.927,5.734-3.209,8.67-3.812c1.721-0.36,3.605-0.542,5.602-0.542h3.076l-3.135,6.787    h-2.861c-1.625,0-3.092,0.204-4.361,0.606c-1.289,0.411-2.582,1.075-3.844,1.974c-2.418,1.715-4.234,3.862-5.398,6.38    c-1.125,2.434-1.279,4.585-0.461,6.393c0.508,1.098,1.287,1.883,2.316,2.334c0.988,0.434,2.357,0.645,4.189,0.645h1.949    L59.4,32.484H55.461z M74.643,7.366l3.137-6.787h19.365l-3.137,6.787H74.643z"/>
		<path fill="#FFFFFF" d="M111.693,1.158c1.973,0,3.484,0.172,4.498,0.511c0.893,0.297,1.537,0.771,1.979,1.463    c0.486,0.741,0.711,1.705,0.666,2.868c-0.047,1.259-0.383,2.573-1,3.906c-0.859,1.861-2.164,3.614-3.883,5.213    c-1.666,1.563-3.381,2.697-5.094,3.372c-1.713,0.671-3.734,1.011-6.008,1.011h-2.816h-0.74l-0.311,0.672l-5.42,11.729h-6.238    l8.332-18.03h9.217c1.684,0,2.906-0.219,3.734-0.67l0.008-0.004l0.008-0.005c1.014-0.575,1.77-1.388,2.242-2.415    c0.82-1.771,0.156-2.736-0.318-3.16c-0.648-0.568-1.729-0.833-3.398-0.833h-8.217l2.6-5.629H111.693 M96.238,1.158l-2.6,5.629    h-18.09l2.6-5.629H96.238 M73.238,1.158l-2.602,5.629h-2.49c-1.684,0-3.211,0.213-4.537,0.633c-1.348,0.43-2.693,1.12-4.002,2.052    c-2.502,1.775-4.383,3.999-5.59,6.61c-1.199,2.593-1.354,4.907-0.459,6.884c0.566,1.225,1.445,2.105,2.607,2.617    c1.063,0.465,2.51,0.691,4.422,0.691h1.043l-2.6,5.629h-3.57c-3.566,0-6.166-0.68-7.711-2.008    c-1.939-1.715-2.701-4.146-2.326-7.441c0.186-1.719,0.705-3.511,1.545-5.327c1.119-2.423,2.752-4.809,4.857-7.094    c1.613-1.76,3.396-3.315,5.295-4.623c2.754-1.884,5.6-3.137,8.463-3.724c1.682-0.352,3.525-0.53,5.482-0.53H73.238 M79.918,13.874    l-3.045,6.591c-0.986,2.134-1.236,3.428-0.834,4.32c0.584,1.336,2.396,1.49,3.711,1.49h3.836l-2.602,5.629h-7.416    c-2.91,0-4.658-0.689-5.191-2.047c-0.414-1.064-0.457-3.309,1.691-7.958l3.709-8.025H79.918 M111.693,0h-10.9l-3.672,7.945h10.029    c1.344,0,2.221,0.182,2.635,0.546c0.408,0.364,0.418,0.967,0.031,1.802c-0.373,0.81-0.961,1.438-1.762,1.894    c-0.652,0.355-1.709,0.529-3.18,0.529h-9.957l-9.402,20.347h8.789l5.73-12.401h2.816c2.43,0,4.574-0.364,6.43-1.091    c1.848-0.728,3.674-1.926,5.465-3.604c1.838-1.711,3.217-3.572,4.143-5.573c0.688-1.488,1.053-2.935,1.105-4.349    c0.053-1.414-0.232-2.596-0.855-3.547c-0.58-0.91-1.438-1.546-2.582-1.926C115.422,0.19,113.797,0,111.693,0L111.693,0z M98.051,0    H77.408l-3.672,7.945h20.643L98.051,0L98.051,0z M75.049,0h-3.982c-2.031,0-3.939,0.182-5.719,0.554    c-3.021,0.62-5.98,1.918-8.881,3.902c-1.994,1.372-3.818,2.968-5.494,4.795c-2.201,2.389-3.883,4.853-5.057,7.391    c-0.893,1.935-1.443,3.836-1.645,5.688c-0.416,3.67,0.496,6.473,2.711,8.432c1.779,1.531,4.6,2.299,8.479,2.299h4.311l3.67-7.945    h-2.854c-1.736,0-3.053-0.197-3.957-0.596c-0.904-0.396-1.574-1.074-2.021-2.042c-0.748-1.653-0.6-3.621,0.459-5.911    c1.127-2.439,2.865-4.489,5.209-6.151c1.23-0.876,2.463-1.505,3.684-1.894c1.227-0.389,2.617-0.579,4.186-0.579h3.23L75.049,0    L75.049,0z M81.73,12.716h-8.695l-4.018,8.698c-1.873,4.051-2.445,7.002-1.721,8.864c0.732,1.859,2.822,2.785,6.271,2.785h8.156    l3.672-7.945H79.75c-1.535,0-2.422-0.264-2.652-0.801c-0.244-0.53,0.035-1.654,0.826-3.366L81.73,12.716L81.73,12.716z"/>
	</g>
	<path fill-rule="evenodd" clip-rule="evenodd" fill="#FFFFFF" d="M57.293,0L57.293,0c-1.047,0.56-2.086,1.192-3.121,1.9   c-2.342,1.613-4.488,3.488-6.459,5.636c-2.584,2.809-4.563,5.704-5.941,8.688c-1.051,2.274-1.697,4.509-1.932,6.686   c-0.49,4.315,0.566,7.627,3.184,9.913c2.078,1.814,5.408,2.701,9.967,2.701h38.568l-3.434,7.436L1.736,42.957   C11.912,18.434,29.986,3.5,57.293,0L57.293,0z"/>
	<polygon fill-rule="evenodd" clip-rule="evenodd" fill="#FFFFFF" points="92.432,35.523 98.617,35.523 95.182,42.959    88.998,42.959 92.432,35.523  "/>
	<polygon fill-rule="evenodd" clip-rule="evenodd" fill="#FFFFFF" points="99.684,35.523 103.162,35.523 99.727,42.959    96.248,42.959 99.684,35.523  "/>
	<polygon fill-rule="evenodd" clip-rule="evenodd" fill="#FFFFFF" points="104.584,35.523 106.541,35.523 103.105,42.959    101.148,42.959 104.584,35.523  "/>
	<polygon fill-rule="evenodd" clip-rule="evenodd" fill="#FFFFFF" points="108.469,35.523 109.537,35.523 106.102,42.959    105.033,42.959 108.469,35.523  "/>
	<path fill="#FFFFFF" d="M5.594,45.779H5.35c-0.389,0-0.68,0.066-0.869,0.201c-0.191,0.135-0.287,0.342-0.287,0.621   s0.096,0.486,0.287,0.623c0.189,0.137,0.48,0.205,0.869,0.205h0.244v1.199H5.486c-0.359,0-0.674-0.029-0.945-0.086   c-0.27-0.055-0.494-0.141-0.678-0.256c-0.301-0.191-0.535-0.434-0.701-0.727s-0.25-0.613-0.25-0.959s0.084-0.664,0.248-0.955   c0.166-0.293,0.4-0.533,0.703-0.725c0.184-0.113,0.408-0.197,0.678-0.256c0.271-0.057,0.586-0.086,0.945-0.086h0.107V45.779   L5.594,45.779z M7.195,46.596c0,0.23,0.076,0.426,0.23,0.586c0.154,0.162,0.342,0.242,0.563,0.242c0.217,0,0.402-0.08,0.557-0.242   c0.152-0.16,0.23-0.355,0.23-0.586s-0.076-0.424-0.23-0.584c-0.152-0.158-0.338-0.238-0.557-0.238c-0.221,0-0.408,0.08-0.563,0.24   S7.195,46.367,7.195,46.596L7.195,46.596z M5.891,46.602c0-0.279,0.053-0.545,0.16-0.801c0.105-0.254,0.26-0.482,0.459-0.682   c0.199-0.195,0.424-0.346,0.678-0.451c0.254-0.104,0.52-0.156,0.801-0.156s0.549,0.053,0.801,0.156   c0.25,0.105,0.477,0.258,0.676,0.457s0.352,0.426,0.457,0.676c0.105,0.252,0.156,0.52,0.156,0.801s-0.053,0.551-0.158,0.805   c-0.105,0.252-0.258,0.479-0.455,0.676c-0.199,0.201-0.426,0.354-0.676,0.459c-0.252,0.105-0.52,0.158-0.801,0.158   c-0.277,0-0.545-0.053-0.799-0.158c-0.252-0.105-0.479-0.258-0.68-0.459c-0.199-0.199-0.354-0.426-0.459-0.68   C5.943,47.148,5.891,46.881,5.891,46.602L5.891,46.602z M10.311,48.629l0.311-3.283c0.027-0.271,0.117-0.479,0.273-0.621   c0.154-0.143,0.363-0.213,0.633-0.213c0.221,0,0.402,0.053,0.547,0.158s0.242,0.258,0.293,0.455l0.215,0.891   c0.016,0.068,0.031,0.148,0.047,0.24c0.018,0.092,0.035,0.199,0.055,0.316c0.029-0.189,0.053-0.32,0.064-0.391   c0.014-0.07,0.025-0.125,0.035-0.162l0.215-0.895c0.049-0.197,0.146-0.35,0.291-0.455s0.328-0.158,0.547-0.158   c0.27,0,0.48,0.07,0.635,0.213s0.244,0.35,0.27,0.621l0.318,3.283h-1.25l-0.17-2.625c-0.01,0.105-0.025,0.207-0.041,0.303   s-0.031,0.188-0.049,0.271l-0.385,1.627c-0.037,0.162-0.096,0.283-0.176,0.361c-0.078,0.08-0.18,0.119-0.305,0.119   c-0.123,0-0.223-0.039-0.303-0.119c-0.078-0.078-0.139-0.199-0.178-0.361l-0.383-1.627c-0.014-0.061-0.031-0.139-0.047-0.238   c-0.018-0.1-0.033-0.211-0.051-0.336l-0.168,2.625H10.311L10.311,48.629z M15.391,48.629v-2.504c0-0.49,0.141-0.885,0.42-1.178   c0.281-0.295,0.656-0.441,1.127-0.441c0.201,0,0.393,0.035,0.572,0.102c0.182,0.066,0.342,0.164,0.482,0.291   c0.152,0.143,0.268,0.305,0.348,0.486c0.078,0.182,0.119,0.377,0.119,0.586c0,0.426-0.148,0.775-0.441,1.047   c-0.291,0.271-0.672,0.406-1.141,0.406h-0.072v-1.139h0.061c0.139,0,0.242-0.027,0.313-0.08s0.107-0.131,0.107-0.234   c0-0.086-0.031-0.16-0.09-0.219c-0.061-0.059-0.133-0.09-0.219-0.09c-0.111,0-0.191,0.037-0.238,0.111   c-0.049,0.072-0.072,0.197-0.072,0.371v2.484H15.391L15.391,48.629z M18.807,48.629v-2.316c0-0.551,0.145-0.988,0.438-1.311   c0.293-0.324,0.68-0.484,1.164-0.484c0.488,0,0.879,0.162,1.172,0.486c0.293,0.322,0.439,0.76,0.439,1.309v2.316h-1.268v-1.275   h-0.527v-1.059h0.527v-0.121c0-0.137-0.031-0.24-0.09-0.314c-0.059-0.072-0.143-0.109-0.254-0.109   c-0.105,0-0.186,0.037-0.242,0.109s-0.086,0.176-0.086,0.314v2.455H18.807L18.807,48.629z M22.523,48.629v-3.238   c0-0.281,0.063-0.5,0.186-0.652c0.123-0.15,0.299-0.227,0.527-0.227c0.172,0,0.328,0.049,0.465,0.145   c0.139,0.098,0.262,0.246,0.371,0.447l0.457,0.846c0.02,0.033,0.068,0.143,0.152,0.328c0.004,0.006,0.006,0.014,0.008,0.018V44.58   h1.266v3.285c0,0.277-0.061,0.486-0.182,0.627c-0.121,0.143-0.297,0.213-0.531,0.213c-0.164,0-0.311-0.045-0.439-0.135   c-0.131-0.09-0.244-0.225-0.344-0.404l-0.51-0.914c-0.008-0.014-0.031-0.066-0.072-0.158c-0.037-0.084-0.07-0.152-0.094-0.207   v1.742H22.523L22.523,48.629z M26.486,48.629V44.58h1.273v4.049H26.486L26.486,48.629z M28.281,48.629v-2.316   c0-0.551,0.146-0.988,0.438-1.311c0.293-0.324,0.682-0.484,1.166-0.484c0.488,0,0.879,0.162,1.172,0.486   c0.293,0.322,0.439,0.76,0.439,1.309v2.316h-1.27v-1.275h-0.525v-1.059h0.525v-0.121c0-0.137-0.029-0.24-0.088-0.314   c-0.061-0.072-0.145-0.109-0.254-0.109c-0.105,0-0.186,0.037-0.244,0.109c-0.057,0.072-0.084,0.176-0.084,0.314v2.455H28.281   L28.281,48.629z M33.701,48.629V44.58h1.16c0.273,0,0.52,0.031,0.738,0.096c0.221,0.064,0.42,0.162,0.6,0.293   c0.277,0.203,0.488,0.445,0.635,0.729c0.148,0.281,0.223,0.588,0.223,0.916c0,0.354-0.088,0.686-0.262,0.994   c-0.172,0.311-0.41,0.559-0.713,0.744c-0.133,0.082-0.279,0.145-0.439,0.191c-0.16,0.045-0.336,0.074-0.533,0.086v-1.232   c0.209-0.049,0.367-0.143,0.48-0.279c0.111-0.139,0.168-0.311,0.168-0.516c0-0.24-0.07-0.434-0.209-0.58   c-0.141-0.145-0.33-0.223-0.572-0.236v2.844H33.701L33.701,48.629z M40.025,45.705h-0.25c-0.301,0-0.527,0.029-0.68,0.092   c-0.152,0.059-0.273,0.162-0.367,0.307h1.297v0.99h-1.303c0.092,0.15,0.213,0.258,0.365,0.318c0.152,0.063,0.383,0.094,0.688,0.094   h0.25v1.123h-0.107c-0.361,0-0.676-0.029-0.945-0.086c-0.27-0.055-0.496-0.141-0.678-0.256c-0.303-0.191-0.537-0.434-0.703-0.727   s-0.248-0.613-0.248-0.959s0.082-0.664,0.246-0.955c0.166-0.293,0.4-0.533,0.705-0.725c0.182-0.113,0.408-0.197,0.678-0.256   c0.27-0.057,0.584-0.086,0.945-0.086h0.107V45.705L40.025,45.705z M44.031,45.711v2.918H42.76v-2.918h-0.773V44.58h2.816v1.131   H44.031L44.031,45.711z M45.102,48.623v-2.496c0-0.494,0.143-0.887,0.422-1.18c0.281-0.295,0.656-0.441,1.127-0.441   c0.434,0,0.801,0.123,1.1,0.371c0.297,0.248,0.445,0.549,0.445,0.908c0,0.172-0.039,0.322-0.115,0.451   c-0.078,0.129-0.193,0.238-0.348,0.326c0.18,0.063,0.311,0.158,0.391,0.285c0.078,0.129,0.117,0.311,0.117,0.543v1.238h-1.26   v-1.066c0-0.129-0.029-0.219-0.084-0.268c-0.057-0.049-0.164-0.074-0.324-0.074h-0.057v-0.994h0.063   c0.139,0,0.242-0.025,0.313-0.08c0.07-0.053,0.105-0.131,0.105-0.234c0-0.086-0.029-0.16-0.088-0.217   c-0.061-0.061-0.133-0.088-0.221-0.088c-0.109,0-0.189,0.035-0.238,0.109c-0.047,0.074-0.072,0.197-0.072,0.371v2.535H45.102   L45.102,48.623z M48.742,48.629v-2.316c0-0.551,0.145-0.988,0.438-1.311c0.293-0.324,0.68-0.484,1.164-0.484   c0.488,0,0.881,0.162,1.172,0.486c0.293,0.322,0.439,0.76,0.439,1.309v2.316h-1.268v-1.275H50.16v-1.059h0.527v-0.121   c0-0.137-0.031-0.24-0.09-0.314c-0.059-0.072-0.143-0.109-0.254-0.109c-0.105,0-0.186,0.037-0.242,0.109s-0.086,0.176-0.086,0.314   v2.455H48.742L48.742,48.629z M52.459,48.629v-3.238c0-0.281,0.063-0.5,0.186-0.652c0.125-0.15,0.301-0.227,0.527-0.227   c0.172,0,0.328,0.049,0.465,0.145c0.141,0.098,0.262,0.246,0.369,0.447l0.459,0.846c0.02,0.033,0.068,0.143,0.152,0.328   c0.004,0.006,0.006,0.014,0.008,0.018V44.58h1.266v3.285c0,0.277-0.061,0.486-0.182,0.627c-0.121,0.143-0.297,0.213-0.531,0.213   c-0.164,0-0.311-0.045-0.439-0.135s-0.244-0.225-0.344-0.404l-0.51-0.914c-0.008-0.014-0.031-0.066-0.072-0.158   c-0.037-0.084-0.07-0.152-0.094-0.207v1.742H52.459L52.459,48.629z M56.322,48.629v-1.188h1.096c0.074,0,0.129-0.012,0.162-0.033   c0.033-0.023,0.051-0.061,0.051-0.111c0-0.027-0.006-0.057-0.02-0.088c-0.014-0.029-0.029-0.053-0.047-0.068l-0.824-0.65   c-0.129-0.102-0.227-0.225-0.295-0.371c-0.068-0.148-0.104-0.309-0.104-0.479c0-0.33,0.125-0.59,0.377-0.777   c0.252-0.189,0.6-0.283,1.045-0.283h1.211v1.152h-0.99c-0.07,0-0.121,0.01-0.152,0.025c-0.031,0.018-0.049,0.043-0.049,0.08   c0,0.027,0.008,0.051,0.021,0.074c0.016,0.021,0.047,0.055,0.1,0.098l0.557,0.436c0.285,0.225,0.469,0.408,0.547,0.553   c0.08,0.143,0.119,0.311,0.119,0.502c0,0.35-0.133,0.625-0.395,0.826c-0.266,0.201-0.629,0.303-1.09,0.303H56.322L56.322,48.629z    M59.549,48.629v-2.504c0-0.49,0.141-0.885,0.422-1.178c0.281-0.295,0.656-0.441,1.125-0.441c0.203,0,0.395,0.035,0.574,0.102   c0.182,0.066,0.342,0.164,0.482,0.291c0.152,0.143,0.268,0.305,0.346,0.486c0.08,0.182,0.119,0.377,0.119,0.586   c0,0.426-0.146,0.775-0.439,1.047s-0.674,0.406-1.141,0.406h-0.074v-1.139h0.063c0.137,0,0.242-0.027,0.313-0.08   s0.105-0.131,0.105-0.234c0-0.086-0.029-0.16-0.088-0.219c-0.061-0.059-0.133-0.09-0.221-0.09c-0.111,0-0.189,0.037-0.238,0.111   c-0.049,0.072-0.072,0.197-0.072,0.371v2.484H59.549L59.549,48.629z M64.17,46.596c0,0.23,0.076,0.426,0.23,0.586   c0.154,0.162,0.342,0.242,0.564,0.242c0.215,0,0.4-0.08,0.555-0.242c0.152-0.16,0.229-0.355,0.229-0.586s-0.076-0.424-0.229-0.584   c-0.152-0.158-0.338-0.238-0.555-0.238c-0.223,0-0.41,0.08-0.564,0.24S64.17,46.367,64.17,46.596L64.17,46.596z M62.865,46.602   c0-0.279,0.053-0.545,0.16-0.801c0.105-0.254,0.26-0.482,0.459-0.682c0.199-0.195,0.424-0.346,0.678-0.451   c0.252-0.104,0.521-0.156,0.803-0.156c0.279,0,0.545,0.053,0.797,0.156c0.252,0.105,0.479,0.258,0.678,0.457   s0.352,0.426,0.457,0.676c0.105,0.252,0.156,0.52,0.156,0.801S67,47.152,66.895,47.406c-0.105,0.252-0.258,0.479-0.455,0.676   c-0.199,0.201-0.426,0.354-0.678,0.459s-0.518,0.158-0.797,0.158s-0.547-0.053-0.801-0.158c-0.252-0.105-0.479-0.258-0.68-0.459   c-0.199-0.199-0.354-0.426-0.459-0.68C62.918,47.148,62.865,46.881,62.865,46.602L62.865,46.602z M67.441,48.623v-2.496   c0-0.494,0.141-0.887,0.422-1.18c0.281-0.295,0.654-0.441,1.125-0.441c0.436,0,0.803,0.123,1.1,0.371   c0.299,0.248,0.447,0.549,0.447,0.908c0,0.172-0.039,0.322-0.117,0.451c-0.076,0.129-0.193,0.238-0.348,0.326   c0.182,0.063,0.313,0.158,0.391,0.285c0.078,0.129,0.119,0.311,0.119,0.543v1.238h-1.262v-1.066c0-0.129-0.027-0.219-0.082-0.268   c-0.057-0.049-0.166-0.074-0.324-0.074h-0.057v-0.994h0.063c0.137,0,0.242-0.025,0.313-0.08c0.07-0.053,0.105-0.131,0.105-0.234   c0-0.086-0.031-0.16-0.09-0.217c-0.059-0.061-0.133-0.088-0.219-0.088c-0.111,0-0.191,0.035-0.238,0.109   c-0.049,0.074-0.072,0.197-0.072,0.371v2.535H67.441L67.441,48.623z M72.824,45.711v2.918h-1.271v-2.918h-0.771V44.58h2.816v1.131   H72.824L72.824,45.711z M75.592,48.629v-2.504c0-0.49,0.143-0.885,0.424-1.178c0.279-0.295,0.654-0.441,1.125-0.441   c0.201,0,0.393,0.035,0.572,0.102c0.182,0.066,0.342,0.164,0.482,0.291c0.152,0.143,0.268,0.305,0.348,0.486   c0.078,0.182,0.119,0.377,0.119,0.586c0,0.426-0.148,0.775-0.441,1.047c-0.291,0.271-0.672,0.406-1.141,0.406h-0.072v-1.139h0.061   c0.139,0,0.242-0.027,0.313-0.08c0.072-0.053,0.107-0.131,0.107-0.234c0-0.086-0.031-0.16-0.09-0.219s-0.133-0.09-0.221-0.09   c-0.109,0-0.189,0.037-0.238,0.111c-0.047,0.072-0.072,0.197-0.072,0.371v2.484H75.592L75.592,48.629z M82.225,44.58v2.318   c0,0.545-0.148,0.982-0.441,1.307c-0.293,0.326-0.684,0.488-1.172,0.488c-0.484,0-0.873-0.162-1.164-0.486   c-0.293-0.324-0.439-0.762-0.439-1.309V44.58h1.27v2.457c0,0.135,0.029,0.24,0.088,0.313s0.141,0.107,0.246,0.107   c0.107,0,0.189-0.035,0.25-0.107c0.059-0.072,0.088-0.178,0.088-0.313V44.58H82.225L82.225,44.58z M82.711,48.629v-2.553   c0-0.48,0.133-0.863,0.402-1.146c0.27-0.281,0.629-0.424,1.08-0.424c0.416,0,0.77,0.121,1.059,0.361   c0.287,0.24,0.432,0.533,0.432,0.877c0,0.143-0.031,0.273-0.092,0.396c-0.059,0.123-0.145,0.229-0.258,0.316   c0.209,0.127,0.361,0.271,0.463,0.434c0.102,0.16,0.152,0.348,0.152,0.557c0,0.152-0.025,0.295-0.078,0.428   c-0.051,0.131-0.125,0.25-0.225,0.355c-0.137,0.143-0.297,0.244-0.482,0.307c-0.186,0.061-0.449,0.092-0.791,0.092h-0.266v-1.072   h0.172c0.115,0,0.205-0.025,0.271-0.078s0.1-0.125,0.1-0.215c0-0.092-0.033-0.164-0.1-0.219c-0.066-0.053-0.156-0.078-0.271-0.078   h-0.172v-0.863h0.016c0.115,0,0.205-0.023,0.268-0.068c0.063-0.047,0.094-0.113,0.094-0.197c0-0.076-0.025-0.137-0.076-0.188   c-0.051-0.049-0.111-0.072-0.186-0.072c-0.094,0-0.162,0.031-0.205,0.094c-0.043,0.064-0.063,0.168-0.063,0.316v2.641H82.711   L82.711,48.629z M86.291,44.58h1.273v2.525c0,0.133,0.033,0.232,0.1,0.297S87.83,47.5,87.963,47.5h0.604v1.129h-0.783   c-0.51,0-0.885-0.117-1.129-0.352c-0.242-0.232-0.363-0.594-0.363-1.084V44.58L86.291,44.58z M88.877,48.629V44.58h1.275v4.049   H88.877L88.877,48.629z M93.254,45.779H93.01c-0.389,0-0.68,0.066-0.869,0.201c-0.191,0.135-0.287,0.342-0.287,0.621   s0.096,0.486,0.287,0.623c0.189,0.137,0.48,0.205,0.869,0.205h0.244v1.199h-0.107c-0.361,0-0.676-0.029-0.945-0.086   c-0.27-0.055-0.494-0.141-0.678-0.256c-0.301-0.191-0.535-0.434-0.701-0.727s-0.25-0.613-0.25-0.959s0.082-0.664,0.248-0.955   c0.166-0.293,0.4-0.533,0.703-0.725c0.184-0.113,0.408-0.197,0.678-0.256c0.27-0.057,0.584-0.086,0.945-0.086h0.107V45.779   L93.254,45.779z M95.375,48.629V44.58h1.275v4.049H95.375L95.375,48.629z M97.172,48.629v-2.316c0-0.551,0.145-0.988,0.438-1.311   c0.293-0.324,0.68-0.484,1.166-0.484s0.879,0.162,1.172,0.486c0.293,0.322,0.439,0.76,0.439,1.309v2.316h-1.27v-1.275H98.59v-1.059   h0.527v-0.121c0-0.137-0.031-0.24-0.09-0.314c-0.059-0.072-0.143-0.109-0.252-0.109c-0.105,0-0.188,0.037-0.244,0.109   s-0.086,0.176-0.086,0.314v2.455H97.172L97.172,48.629z M100.803,48.629v-1.188h1.096c0.072,0,0.127-0.012,0.162-0.033   c0.033-0.023,0.051-0.061,0.051-0.111c0-0.027-0.008-0.057-0.021-0.088c-0.012-0.029-0.029-0.053-0.047-0.068l-0.822-0.65   c-0.129-0.102-0.229-0.225-0.295-0.371c-0.068-0.148-0.104-0.309-0.104-0.479c0-0.33,0.125-0.59,0.377-0.777   c0.252-0.189,0.6-0.283,1.045-0.283h1.209v1.152h-0.988c-0.07,0-0.121,0.01-0.152,0.025c-0.033,0.018-0.049,0.043-0.049,0.08   c0,0.027,0.006,0.051,0.021,0.074c0.014,0.021,0.047,0.055,0.1,0.098l0.555,0.436c0.287,0.225,0.469,0.408,0.549,0.553   c0.078,0.143,0.119,0.311,0.119,0.502c0,0.35-0.133,0.625-0.396,0.826s-0.627,0.303-1.088,0.303H100.803L100.803,48.629z    M101.531,49.873V49.48c0.15,0.041,0.291,0.072,0.424,0.094c0.131,0.021,0.244,0.033,0.344,0.033c0.08,0,0.141-0.016,0.182-0.049   c0.041-0.035,0.061-0.086,0.061-0.154c0-0.064-0.027-0.111-0.082-0.137c-0.057-0.029-0.148-0.043-0.277-0.043   c-0.045,0-0.08,0-0.105,0.002c-0.025,0-0.049,0.002-0.072,0.004l0.219-1.043h0.313l-0.152,0.678h0.037   c0.207,0,0.367,0.049,0.482,0.145c0.113,0.096,0.172,0.229,0.172,0.4c0,0.188-0.063,0.334-0.188,0.436   c-0.125,0.104-0.303,0.154-0.531,0.154c-0.115,0-0.242-0.01-0.381-0.031C101.838,49.947,101.689,49.916,101.531,49.873   L101.531,49.873z M104.057,48.629V44.58h1.275v4.049H104.057L104.057,48.629z"/>
</g>
</svg>